# xmcd CD database file
#
# Track frame offsets:
#	150
#	24512
#	46336
#	63619
#	87604
#	110348
#	140832
#	173578
#	198396
#	211796
#	231025
#
# Disc length: 3326 seconds
#
# Revision: 0
# Processed by: cddbd v1.4PL0 Copyright (c) Steve Scherf et al.
# Submitted via: CDex 1.50beta9
#
DISCID=980cfc0b
DTITLE=Laurel Tree Music For Therapy - Hope
DYEAR=2000
DGENRE=New Age
TTITLE0=Wayfaring Stranger
TTITLE1=You'll Never Walk Alone
TTITLE2=Were You There?
TTITLE3=What A Friend We Have In Jesus
TTITLE4=This Little Light Of Mine
TTITLE5=Go Down Moses
TTITLE6=The Water Is Wide
TTITLE7=Swing Low Sweet Chariot
TTITLE8=El Shaddai
TTITLE9=Will The Circle Be Unbroken
TTITLE10=Amazing Grace
EXTD=YEAR: 2000
EXTT0=
EXTT1=
EXTT2=
EXTT3=
EXTT4=
EXTT5=
EXTT6=
EXTT7=
EXTT8=
EXTT9=
EXTT10=
PLAYORDER=
